Coordinates
version=1
nRows=14
nColumns=40
inDegrees=yes

Units are S.I. units (second, meters, Newtons, ...)
If the header above contains a line with 'inDegrees', this indicates whether rotational values are in degrees (yes) or radians (no).

endheader
time	pelvis_tilt	pelvis_list	pelvis_rotation	pelvis_tx	pelvis_ty	pelvis_tz	hip_flexion_r	hip_adduction_r	hip_rotation_r	knee_angle_r	knee_angle_r_beta	ankle_angle_r	subtalar_angle_r	mtp_angle_r	hip_flexion_l	hip_adduction_l	hip_rotation_l	knee_angle_l	knee_angle_l_beta	ankle_angle_l	subtalar_angle_l	mtp_angle_l	lumbar_extension	lumbar_bending	lumbar_rotation	arm_flex_r	arm_add_r	arm_rot_r	elbow_flex_r	pro_sup_r	wrist_flex_r	wrist_dev_r	arm_flex_l	arm_add_l	arm_rot_l	elbow_flex_l	pro_sup_l	wrist_flex_l	wrist_dev_l
      4.59000000	    -39.47196774	     -3.01046815	      3.16359618	     -0.36425544	      0.68596188	     -0.73146078	     89.46698528	     -1.62998089	    -12.30262962	     93.41952275	      1.63047826	     28.30684000	      0.00000000	      0.00000000	     36.16448498	    -15.76579548	      6.76147352	     89.76305763	      1.56666090	     -8.90531043	      0.00000000	      0.00000000	      2.62434085	      7.37527693	     -5.34704841	     89.96687909	     -0.77976204	      8.24026432	     55.35292215	     66.30574166	      0.00000000	      0.00000000	     89.95290283	     -7.66914015	      4.78250895	     53.21251555	     67.90884814	      0.00000000	      0.00000000
      4.59500000	    -39.51220821	     -2.95361155	      3.12196519	     -0.36417124	      0.68694488	     -0.73159888	     89.27925473	     -1.64169121	    -12.36168089	     92.92893534	      1.62191589	     28.48759982	      0.00000000	      0.00000000	     36.18918365	    -15.73191674	      6.63658912	     89.70277618	      1.56560879	     -8.88664692	      0.00000000	      0.00000000	      2.66246474	      7.31496034	     -5.35703170	     89.96682546	     -0.73489896	      8.29223001	     55.32272537	     66.34561052	      0.00000000	      0.00000000	     89.95280553	     -7.68587825	      4.81195610	     53.17818098	     67.97489921	      0.00000000	      0.00000000
      4.60000000	    -39.51220646	     -2.96346560	      3.12190974	     -0.36415208	      0.68788635	     -0.73166005	     89.24185609	     -1.63707415	    -12.35751090	     92.87940528	      1.62105143	     28.50386951	      0.00000000	      0.00000000	     36.22322348	    -15.74482786	      6.61194615	     89.67182816	      1.56506865	     -8.87995366	      0.00000000	      0.00000000	      2.65412520	      7.33902426	     -5.36201730	     89.96679503	     -0.72741619	      8.29352259	     55.34740977	     66.35268715	      0.00000000	      0.00000000	     89.95273401	     -7.68606770	      4.80949596	     53.19914789	     67.98579611	      0.00000000	      0.00000000
      4.60500000	    -39.53371970	     -2.97083800	      3.11779836	     -0.36393226	      0.68891423	     -0.73166471	     89.07367597	     -1.61105575	    -12.36438724	     92.53971117	      1.61512265	     28.54642187	      0.00000000	      0.00000000	     36.25527815	    -15.81231706	      6.49378091	     89.61678472	      1.56410796	     -8.85884212	      0.00000000	      0.00000000	      2.69946538	      7.31930604	     -5.44621648	     89.96673504	     -0.67390572	      8.37099362	     55.31010160	     66.39440136	      0.00000000	      0.00000000	     89.95260577	     -7.70882782	      4.83858213	     53.12727224	     68.04934875	      0.00000000	      0.00000000
      4.61000000	    -39.50827915	     -2.95065281	      3.13209634	     -0.36408947	      0.68979623	     -0.73169079	     89.02725858	     -1.62600273	    -12.34857219	     92.48085318	      1.61409538	     28.54599086	      0.00000000	      0.00000000	     36.30466043	    -15.84448003	      6.43754022	     89.62420825	      1.56423752	     -8.86024184	      0.00000000	      0.00000000	      2.67373521	      7.29468812	     -5.44928655	     89.96677150	     -0.64603051	      8.37597986	     55.32599751	     66.40338508	      0.00000000	      0.00000000	     89.95255420	     -7.71319089	      4.83342256	     53.14744839	     68.06276696	      0.00000000	      0.00000000
      4.61500000	    -39.49939819	     -2.89071851	      3.10707006	     -0.36393954	      0.69075571	     -0.73172240	     88.86800185	     -1.61177555	    -12.30741648	     92.21286650	      1.60941813	     28.50763462	      0.00000000	      0.00000000	     36.29312471	    -15.79602580	      6.32255440	     89.64365171	      1.56457688	     -8.84267874	      0.00000000	      0.00000000	      2.69071941	      7.20867594	     -5.51339082	     89.96670768	     -0.61635482	      8.43077255	     55.28218798	     66.43618408	      0.00000000	      0.00000000	     89.95252555	     -7.73035035	      4.85407947	     53.10368989	     68.11082471	      0.00000000	      0.00000000
      4.62000000	    -39.41081370	     -2.96236742	      3.07745007	     -0.36376261	      0.69214890	     -0.73175108	     88.63175736	     -1.52689457	    -12.32718200	     91.93651248	      1.60459485	     28.43499282	      0.00000000	      0.00000000	     36.22338547	    -15.87970360	      6.28471449	     89.57860760	      1.56344164	     -8.83976008	      0.00000000	      0.00000000	      2.59424491	      7.28625456	     -5.53289315	     89.96678840	     -0.58449268	      8.47563695	     55.22930905	     66.47916560	      0.00000000	      0.00000000	     89.95250997	     -7.74190436	      4.87187876	     53.09515438	     68.18309475	      0.00000000	      0.00000000
      4.62500000	    -39.40841451	     -2.92502423	      3.06105515	     -0.36372860	      0.69316374	     -0.73176987	     88.52403028	     -1.52491407	    -12.32163041	     91.75757179	      1.60147174	     28.37906867	      0.00000000	      0.00000000	     36.25928559	    -15.84354891	      6.22874156	     89.58762731	      1.56359907	     -8.84277107	      0.00000000	      0.00000000	      2.60758533	      7.25606856	     -5.56535155	     89.96677219	     -0.51344999	      8.49875448	     55.23108698	     66.50802658	      0.00000000	      0.00000000	     89.95246322	     -7.76291344	      4.87937385	     53.07040873	     68.22675300	      0.00000000	      0.00000000
      4.63000000	    -39.40571279	     -2.89456587	      3.08760199	     -0.36362972	      0.69422627	     -0.73185842	     88.41798644	     -1.54380046	    -12.27946552	     91.57080391	      1.59821203	     28.31744622	      0.00000000	      0.00000000	     36.29020487	    -15.81566803	      6.15622872	     89.58282640	      1.56351527	     -8.84190488	      0.00000000	      0.00000000	      2.62835665	      7.20038678	     -5.64201400	     89.96670537	     -0.48327903	      8.50711754	     55.22013353	     66.53345714	      0.00000000	      0.00000000	     89.95240831	     -7.75984981	      4.90226708	     53.03692309	     68.26995355	      0.00000000	      0.00000000
      4.63500000	    -39.38338783	     -2.86589317	      3.07023146	     -0.36353942	      0.69538710	     -0.73191402	     88.28006149	     -1.53342118	    -12.25614395	     91.35628208	      1.59446791	     28.24968883	      0.00000000	      0.00000000	     36.28787617	    -15.79231682	      6.09652407	     89.57308054	      1.56334518	     -8.85493338	      0.00000000	      0.00000000	      2.62027050	      7.17482229	     -5.65942092	     89.96669725	     -0.43998234	      8.53292406	     55.20095724	     66.56265121	      0.00000000	      0.00000000	     89.95234403	     -7.76579844	      4.92114339	     53.01542702	     68.31667956	      0.00000000	      0.00000000
      4.64000000	    -39.35346106	     -2.84836743	      3.04755220	     -0.36346889	      0.69668622	     -0.73200318	     88.11417981	     -1.50893762	    -12.23644903	     91.10393963	      1.59006371	     28.14725559	      0.00000000	      0.00000000	     36.28755034	    -15.78068482	      6.02026652	     89.56632986	      1.56322735	     -8.88287983	      0.00000000	      0.00000000	      2.59776735	      7.15497368	     -5.69515230	     89.96670121	     -0.40196040	      8.53734504	     55.18533006	     66.58790762	      0.00000000	      0.00000000	     89.95233810	     -7.77752922	      4.92795238	     53.01018022	     68.36388067	      0.00000000	      0.00000000
      4.64500000	    -39.34296396	     -2.80291478	      3.05834050	     -0.36348787	      0.69779611	     -0.73209672	     87.99990184	     -1.51858270	    -12.18120301	     90.90127114	      1.58652648	     28.05483463	      0.00000000	      0.00000000	     36.31171372	    -15.74384026	      5.93811256	     89.56851041	      1.56326541	     -8.90659600	      0.00000000	      0.00000000	      2.61191064	      7.09398505	     -5.74739197	     89.96670595	     -0.35995699	      8.53062556	     55.17142606	     66.61681169	      0.00000000	      0.00000000	     89.95229324	     -7.78096815	      4.94064430	     52.99845913	     68.41657888	      0.00000000	      0.00000000
      4.65000000	    -39.35809637	     -2.71818793	      3.01910707	     -0.36358820	      0.69903010	     -0.73215978	     87.92005091	     -1.50601424	    -12.10713051	     90.68210334	      1.58270128	     27.95584264	      0.00000000	      0.00000000	     36.36129141	    -15.65358465	      5.86171336	     89.59656146	      1.56375500	     -8.92673204	      0.00000000	      0.00000000	      2.63752399	      7.00631979	     -5.75048197	     89.96672157	     -0.30295981	      8.52171224	     55.15047154	     66.63811046	      0.00000000	      0.00000000	     89.95225863	     -7.78191033	      4.94900839	     52.97252466	     68.45686360	      0.00000000	      0.00000000
      4.65500000	    -39.31263470	     -2.69507632	      3.01466651	     -0.36339578	      0.70033191	     -0.73227778	     87.73877208	     -1.47571637	    -12.02949523	     90.44508303	      1.57856449	     27.81783574	      0.00000000	      0.00000000	     36.34563129	    -15.62537804	      5.80584295	     89.58587212	      1.56356843	     -8.95830088	      0.00000000	      0.00000000	      2.59891499	      6.98652400	     -5.75791025	     89.96663433	     -0.34789241	      8.53547800	     55.18887415	     66.66912675	      0.00000000	      0.00000000	     89.95226148	     -7.77051191	      4.96238893	     52.98155704	     68.50772786	      0.00000000	      0.00000000
